<?xml version="1.0" encoding="utf-8"?>
<!-- Generator: Adobe Illustrator 25.4.1, SVG Export Plug-In . SVG Version: 6.00 Build 0)  -->
<svg version="1.1" id="Layer_1" xmlns="http://www.w3.org/2000/svg" xmlns:xlink="http://www.w3.org/1999/xlink" x="0px" y="0px"
	 viewBox="0 0 1941.7 500" style="enable-background:new 0 0 1941.7 500;" xml:space="preserve">
<style type="text/css">
	.st0{fill-rule:evenodd;clip-rule:evenodd;fill:#FFFFFF;}
</style>
<path class="st0" d="M261.7,495.8H108.2C37.4,495.8,0,443.3,0,363.3V136.9C0,57,17,0,119.3,0h39.1c72.2,0,103.7,57.1,103.7,137.7
	v44.5H144.4v-72.1c0-6.3-5.3-12-11.6-12h-1.4c-6.3,0-12.1,5.7-12.1,12v271.4c0,7.7,6.6,12.6,12.9,12.6h128.1L261.7,495.8z
	 M929.4,5.1v490.7H811.6V274l-27,221.8h-79l-29-221.8v221.8H559.3L558.9,5.1h156l29.2,222l28.9-222C773.1,5.1,929.4,5.1,929.4,5.1z
	 M1226.5,5.1h119.2v389.1h82v101.6h-201.2L1226.5,5.1L1226.5,5.1z M1940.3,5.1L1877.2,242l64.5,253.8h-123.4l-22.4-126.2L1770,495.8
	h-107.3l64.5-237L1664.1,5.1h123.4l20.3,124.1l25.2-124.1L1940.3,5.1L1940.3,5.1z M393.5,112.5v275.1c0,7.4,6,13.5,14.1,13.5
	c7.4,0,13.4-6,13.4-13.5V112.5c0-7.4-6-13.5-14.1-13.5C399.5,99,393.5,105,393.5,112.5L393.5,112.5z M540.6,394.9
	c0,70.8-34.4,105.1-105.2,105.1h-56.1c-70.8,0-105.1-34.4-105.1-105.1V106c0-70.8,34.3-105.2,105.1-105.2h56.1
	c70.8,0,105.2,34.3,105.2,105.2L540.6,394.9L540.6,394.9z M1068.1,99.7v116.2l12.4,0.1c6.8,0,12.4-6,12.4-13.4v-89.4
	c0-7.4-5.5-13.4-12.4-13.4L1068.1,99.7L1068.1,99.7z M1068.5,304.5v191.3H949.3V5.1H1105c70.8,0,105.2,34.3,105.2,105.1v89.2
	c0,70.8-34.4,105.1-105.2,105.1L1068.5,304.5L1068.5,304.5z M1441,3.7h210.6v101.8h-91.2v89.8h87.7v101.8h-87.7v96.1h92.6V495h-212
	L1441,3.7L1441,3.7z"/>
</svg>
