<?xml version="1.0" encoding="utf-8"?>
<!-- Generator: Adobe Illustrator 25.4.1, SVG Export Plug-In . SVG Version: 6.00 Build 0)  -->
<svg version="1.1"
	 id="svg8" xmlns:cc="http://creativecommons.org/ns#" xmlns:dc="http://purl.org/dc/elements/1.1/" xmlns:inkscape="http://www.inkscape.org/namespaces/inkscape" xmlns:rdf="http://www.w3.org/1999/02/22-rdf-syntax-ns#" xmlns:sodipodi="http://sodipodi.sourceforge.net/DTD/sodipodi-0.dtd" xmlns:svg="http://www.w3.org/2000/svg"
	 xmlns="http://www.w3.org/2000/svg" xmlns:xlink="http://www.w3.org/1999/xlink" x="0px" y="0px" viewBox="0 0 1000 174.4"
	 style="enable-background:new 0 0 1000 174.4;" xml:space="preserve">
<style type="text/css">
	.st0{fill:#FFFFFF;}
</style>
<sodipodi:namedview  bordercolor="#666666" borderopacity="1.0" fit-margin-bottom="0" fit-margin-left="0" fit-margin-right="0" fit-margin-top="0" id="base" inkscape:current-layer="layer1" inkscape:cx="1174.3671" inkscape:cy="-552.266" inkscape:document-units="px" inkscape:pagecheckerboard="true" inkscape:pageopacity="0.82352941" inkscape:pageshadow="2" inkscape:window-height="1017" inkscape:window-maximized="1" inkscape:window-width="1920" inkscape:window-x="1912" inkscape:window-y="-8" inkscape:zoom="0.49497475" pagecolor="#ffffff" showgrid="false" units="px">
	</sodipodi:namedview>
<g id="layer1" transform="translate(-292.23311,751.00823)" inkscape:groupmode="layer" inkscape:label="Layer 1">
	<path id="path8957" inkscape:connector-curvature="0" class="st0" d="M855.6-629.2c40.7,0,40.7-30.1,40.7-60.9
		c0-31.2,0-60.9-40.7-60.9c-40.7,0-40.7,29.7-40.7,60.9C815-659.2,815-629.2,855.6-629.2z M855.6-733.4c13.9,0,15.7,13.1,15.7,43.3
		c0,30.2-1.8,43.3-15.7,43.3c-13.9,0-15.7-13.1-15.7-43.3C839.9-720.3,841.7-733.4,855.6-733.4z M992.3-662.3
		c0-16.2-4.6-27.4-22-29.9v-0.3c13.4-2.6,20.1-12.4,20.1-26c0-25.2-15.5-30.5-34.3-30.5h-43.8v117.9h43.6
		C966.3-631.1,992.3-632.4,992.3-662.3L992.3-662.3z M936.9-730.9h15.2c7.8-0.1,14.2,6.2,14.2,14c0,0.3,0,0.7,0,1
		c0,11.4-7.5,15-12.9,15h-16.5V-730.9z M936.9-649.3v-33.5h14.4c12.4,0,16.3,6.4,16.3,16.8c0,16.5-11.8,16.7-17,16.7H936.9z
		 M1033.6-749h-24.7v117.9h24.7V-749z M733.3-718.4h0.3l32.2,87.3h32.5V-749h-23v82.7h-0.3L743.6-749h-33.3v117.9h23L733.3-718.4z
		 M1119.2-649.3h-41v-34.5h36.6v-18.1h-36.6v-28h39.7V-749h-64.4v117.9h65.7L1119.2-649.3z M316.9-683.7h28.3v52.6h24.7V-749h-24.7
		v47.2h-28.3V-749h-24.7v117.9h24.7V-683.7z M1267.1-749l-18.8,49.8l-17.6-49.8h-104.6v19.2h30.6v98.8h23.6v-98.8h31.1l23.2,57.9
		v40.8h24.7V-672l33-77.1H1267.1z M414.9-749h-24.7v117.9h24.7V-749z M553.5-683.7h28.3v52.6h24.7V-749h-24.7v47.2h-28.3V-749h-24.7
		v117.9h24.7V-683.7z M477.5-629.2c11.2-0.5,22.3-1.8,33.3-3.9v-59.8h-38.1v18.1h13.4v26.1c-3.9,1.4-8.1,2.2-12.2,2.3
		c-14,0-17.6-6.5-17.6-43.4c0-22.9,0-43.6,15.4-43.6c13.1,0,14.9,9.6,14.7,20.6h24.5c1.5-24.7-13.6-38.2-37.7-38.2
		c-40.3,0-41.8,30.2-41.8,59.9C431.3-646.3,436-629.2,477.5-629.2L477.5-629.2z M654.4-629.2c18.8,0,41.2-3.6,41.2-34.1
		c0-37.1-49.7-35.1-49.7-57.5c-0.6-6.3,4-11.9,10.3-12.6c0.8-0.1,1.7-0.1,2.5,0c10,0,11.4,9,11.4,17.8h24
		c1.6-24.7-10.3-35.4-34.3-35.4c-30.1,0-38.9,14.7-38.9,33.2c0,35.1,49.7,36.4,49.7,57.7c0.9,6.4-3.6,12.4-10.1,13.3
		c-0.8,0.1-1.6,0.1-2.4,0.1c-13.6,0-14-9.5-14-20.7h-24.7C618.1-647.1,623.8-629.2,654.4-629.2L654.4-629.2z M292.2-576.6h966.9
		v-18.1H292.2V-576.6z"/>
</g>
</svg>
