<?xml version="1.0" encoding="utf-8"?>
<!-- Generator: Adobe Illustrator 25.4.1, SVG Export Plug-In . SVG Version: 6.00 Build 0)  -->
<svg version="1.1" id="Layer_1" xmlns="http://www.w3.org/2000/svg" xmlns:xlink="http://www.w3.org/1999/xlink" x="0px" y="0px"
	 viewBox="0 0 5983 758" style="enable-background:new 0 0 5983 758;" xml:space="preserve">
<style type="text/css">
	.st0{fill:#FFFFFF;}
</style>
<g>
	<polygon class="st0" points="1200,4 1015.1,319.1 831,4 681,4 951,434.1 951,754 1073,754 1073,433.9 1341,4 	"/>
	<polygon class="st0" points="502,317 122,317 122,4 0,4 0,754 122,754 122,431 502,431 502,754 624,754 624,4 502,4 	"/>
	<path class="st0" d="M1753,4h-350v750h122V447h228c131,0,208-87,208-191v-58C1961,88,1879,4,1753,4z M1839,242c0,48-33,95-98,95
		h-216V120h216c63,0,98,44,98,88V242z"/>
	<polygon class="st0" points="2189,429 2555,429 2555,317 2189,317 2189,118 2576,118 2576,4 2067,4 2067,754 2582,754 2582,640 
		2189,640 	"/>
	<polygon class="st0" points="5983,4 5417,4 5417,112 5639,112 5639,754 5761,754 5761,112 5983,112 	"/>
	<path class="st0" d="M3214.6,369.4c46.2-24.5,73.4-70,73.4-115.4v-66c0-92-68-184-208-184h-361v750h396c143,0,195-103,195-186v-51
		C3310,456.3,3278.7,400.4,3214.6,369.4z M3076,118c61,0,90,42,90,84v33c0,40-28,85-90,85h-235V118H3076z M3188,558
		c0,46-39,82-90,82h-257V432h257c59,0,90,46,90,90V558z"/>
	<path class="st0" d="M5114,313h-124c-72,0-116-42-116-92v-18c0-49,30-93,116-93h91c76,0,117,46,117,97h123c0-119-86-207-224-207
		h-121c-139,0-224,85-224,198v38c0,100,91,197,220,197h122c82,0,125,49,125,99v13c0,50-40,101-119,101h-103c-67,0-118-43-118-104
		h-125c0,105,74,216,234,216h121c140,0,232-90,232-213v-22C5341,400,5230,313,5114,313z"/>
	<polygon class="st0" points="3550,429 3916,429 3916,317 3550,317 3550,118 3937,118 3937,4 3428,4 3428,754 3943,754 3943,640 
		3550,640 	"/>
	<path class="st0" d="M4291,4l-271,750h133l59.9-178h294.6l60.5,178h138L4437,4H4291z M4250,466l109.6-325.4L4470.1,466H4250z"/>
</g>
</svg>
