<?xml version="1.0" encoding="utf-8"?>
<!-- Generator: Adobe Illustrator 25.4.1, SVG Export Plug-In . SVG Version: 6.00 Build 0)  -->
<svg version="1.1" id="Layer_1" xmlns="http://www.w3.org/2000/svg" xmlns:xlink="http://www.w3.org/1999/xlink" x="0px" y="0px"
	 viewBox="0 0 98 60" style="enable-background:new 0 0 98 60;" xml:space="preserve">
<style type="text/css">
	.st0{fill:#FFFFFF;}
</style>
<path class="st0" d="M0.6,20.3h12.7V60H0.6V20.3z M7,14c-3.9,0-7-3.1-7-7c0-3.9,3.1-7,7-7c3.9,0,7,3.1,7,7C14,10.8,10.9,14,7,14
	L7,14z M22.9,22.9h16.6v12.8H22.9L22.9,22.9L22.9,22.9z M97.6,30.9c0,12.8-10.7,28.6-28.2,29.1H48.7V1.9h20.7
	C86.9,2.9,97.6,18.3,97.6,30.9L97.6,30.9z M67.4,48.6l2.1,0c11.2-0.5,16.7-10,16.7-17.5c0-7.6-5.6-17.1-16.7-17.6h-9v35.2L67.4,48.6
	L67.4,48.6z"/>
</svg>
