<svg id="Layer_1" data-name="Layer 1" xmlns="http://www.w3.org/2000/svg" viewBox="0 0 198.93 77.37"><defs><style>.cls-1{fill:#ed1c24;}.cls-2{fill:#fff;}</style></defs><rect class="cls-1" width="198.93" height="77.37"/><path class="cls-2" d="M81.3,12.6l-20.67,48H47L43.71,41.47A69.57,69.57,0,0,1,42.63,29a90.77,90.77,0,0,1-4,11.45L30.46,60.62h-13l-8.57-48H21.1l3,18a114.16,114.16,0,0,1,1.73,15.77,67.12,67.12,0,0,1,2-6.63l1.87-4.61L38.82,12.6H50.34l3.53,20.66a122.37,122.37,0,0,1,1.36,13.11,61.2,61.2,0,0,1,2.38-7.13l1.44-3.6,9.07-23Z"/><path class="cls-2" d="M99.77,29.4h10.08L106,60.62H95.92l.77-3.57a13.58,13.58,0,0,1-4.41,3.5,14.86,14.86,0,0,1-5.81,1.12c-3.85,0-6.93-1-9.66-3.85a16.05,16.05,0,0,1-4.2-11.48,18.91,18.91,0,0,1,5-13.44,15.29,15.29,0,0,1,11.48-4.55,14.07,14.07,0,0,1,6.09,1.19,11.25,11.25,0,0,1,4.27,3.64ZM85.35,39.34A8.84,8.84,0,0,0,83,45.57a7.51,7.51,0,0,0,2,5.32A7,7,0,0,0,90.32,53a8.13,8.13,0,0,0,5.74-2.1,9.53,9.53,0,0,0,2.66-6.72,7.2,7.2,0,0,0-2.17-5.39A7.42,7.42,0,0,0,91.3,37,7.91,7.91,0,0,0,85.35,39.34Z"/><path class="cls-2" d="M131.55,37.73a9.88,9.88,0,0,0-5.88-2.1,4.9,4.9,0,0,0-3,.84A2.12,2.12,0,0,0,122,38a1.91,1.91,0,0,0,1,1.68,10.58,10.58,0,0,0,2.45.84l2.31.63a11.23,11.23,0,0,1,5.39,2.94,7.86,7.86,0,0,1,2.31,5.95,10.69,10.69,0,0,1-2.94,7.7c-3.36,3.5-8.26,3.92-11,3.92a19,19,0,0,1-8.12-1.54,18.19,18.19,0,0,1-4.83-3.22l4.27-6.79a14.89,14.89,0,0,0,3.85,2.59,11.34,11.34,0,0,0,4.34,1,5.9,5.9,0,0,0,3.08-.7,2.14,2.14,0,0,0,1.26-2,2.24,2.24,0,0,0-1-2,11.16,11.16,0,0,0-2.45-.91l-2.24-.7a12.41,12.41,0,0,1-5.25-2.8,8,8,0,0,1-2.1-5.6,10.35,10.35,0,0,1,2.94-7.28c3.22-3.15,8.05-3.36,10.29-3.36a17.08,17.08,0,0,1,10.29,3.15Z"/><path class="cls-2" d="M150.66,37.52l-2.87,23.1H137.7l2.87-23.1h-3.64l1-8.12h3.64l1.27-10.08H152.9L151.64,29.4h6.16l-1,8.12Z"/><path class="cls-2" d="M166.9,47a8.21,8.21,0,0,0,1.26,4.69A5.58,5.58,0,0,0,173,53.83a7.08,7.08,0,0,0,4-.91,7.06,7.06,0,0,0,2.17-2.8L189.3,51a18.87,18.87,0,0,1-5.67,7.77c-3.57,2.66-7.84,2.94-10.71,2.94-3.85,0-8.47-.49-12.19-4.2-3-3-3.92-6.72-3.92-10.92,0-6.86,2.8-11.41,5.39-13.86,3.79-3.57,8.48-4.34,12.4-4.34,5.32,0,9.31,1.68,11.69,4,4.2,4.13,4.34,10.92,3.92,14.63Zm13.65-6.16a6.31,6.31,0,0,0-2-4.06,7,7,0,0,0-4.13-1.26,6.44,6.44,0,0,0-4.76,1.89,7.26,7.26,0,0,0-1.75,3.43Z"/></svg>